<svg width="142" height="33" viewBox="0 0 142 33" fill="none" xmlns="http://www.w3.org/2000/svg">
<g clip-path="url(#clip0_101_122)">
<path d="M0.522004 19.1695L2.30685 18.8879V2.34348L0.306152 2.08327L0.414078 0.305664H12.8765L12.5741 5.31195L10.0867 5.24664L9.93599 2.1047H6.07917V9.54371H7.75914L8.14808 7.83141L9.89424 7.87427V13.0112H8.16947L7.75813 11.256H6.07917V19.1481H9.95737L10.3249 15.7245L12.9416 15.8113L13.1361 21.0339H0.436478L0.522004 19.1695Z" fill="#2D2C2B"/>
<path d="M14.2783 21.0339L14.3434 19.4951L15.7444 19.2134V8.7825L14.1062 8.63045V7.0702L18.2043 6.48549L18.5128 7.37429V7.959C19.5076 6.91815 20.6968 6.31201 22.2108 6.31201C24.4386 6.31201 26.0819 7.65593 26.0819 10.3438V19.2145L27.5684 19.4961L27.4819 21.0349H22.6486V11.0907C22.6486 9.66008 22.1243 8.85801 20.8475 8.85801C20.4148 8.85801 20.1063 8.94475 19.7611 9.05291C19.5442 9.22639 19.3498 9.4866 19.1767 9.72539V19.2134L20.6469 19.4951L20.539 21.0339H14.2783Z" fill="#2D2C2B"/>
<path d="M92.4656 21.0339L92.5308 19.4951L93.9318 19.2134V8.7825L92.2936 8.63045V7.0702L96.3917 6.48549L96.6992 7.37429V7.959C97.6939 6.91815 98.8832 6.31201 100.397 6.31201C102.625 6.31201 104.268 7.65593 104.268 10.3438V19.2145L105.755 19.4961L105.668 21.0349H100.835V11.0907C100.835 9.66008 100.31 8.85801 99.0339 8.85801C98.6022 8.85801 98.2936 8.94475 97.9475 9.05291C97.7316 9.22639 97.5361 9.4866 97.3641 9.72539V19.2134L98.8343 19.4951L98.7264 21.0339H92.4656Z" fill="#2D2C2B"/>
<path d="M35.2952 20.7456C34.7332 20.9844 33.7171 21.2436 32.3975 21.2436C30.6676 21.2436 29.0569 20.464 29.0569 17.9271V8.77481L27.4136 8.5146L27.4787 6.69414L29.3389 6.6074L30.1392 3.83282L32.5075 3.72363V6.69312H35.0814L34.9032 8.51358L32.5533 8.77481V17.9057C32.5533 18.6639 32.9646 19.1629 33.7425 19.1629H35.1425L35.2952 20.7456Z" fill="#2D2C2B"/>
<path d="M132.159 21.0345L132.224 19.5385L133.544 19.2354V8.78406L131.987 8.63202V7.07074L136.219 6.48603L136.5 7.50443V7.82995C137.604 7.00645 139.117 6.4646 140.913 6.4646L141.54 7.00645L141.108 10.93L138.772 10.8433L138.535 8.7412C137.994 8.82794 137.475 8.97999 137.042 9.28306V19.2364L138.513 19.5395L138.405 21.0355H132.159V21.0345Z" fill="#2D2C2B"/>
<path d="M71.1988 21.0345L71.264 19.5385L72.5836 19.2354V8.78406L71.0258 8.63202V7.07074L75.2583 6.48603L75.5393 7.50443V7.82995C76.643 7.00645 78.156 6.4646 79.952 6.4646L80.5792 7.00645L80.1465 10.93L77.8108 10.8433L77.5736 8.7412C77.0329 8.82794 76.5137 8.97999 76.081 9.28306V19.2364L77.5522 19.5395L77.4443 21.0355H71.1988V21.0345Z" fill="#2D2C2B"/>
<path d="M36.3259 21.0337L36.3911 19.5378L37.7106 19.2347V8.78333L36.1528 8.63128V7.07001L40.3864 6.4853L40.6674 7.5037V7.82922C41.7701 7.00572 43.2841 6.46387 45.0791 6.46387L45.7063 7.00572L45.2736 10.9293L42.9379 10.8426L42.6997 8.74047C42.159 8.82721 41.6397 8.97925 41.207 9.28232V19.2357L42.6783 19.5388L42.5703 21.0347H36.3259V21.0337Z" fill="#2D2C2B"/>
<path d="M49.7424 14.6777C49.7424 17.1696 50.8176 19.0992 52.9731 19.0992C54.0757 19.0992 54.9626 18.8604 56.0011 18.3839L56.5855 19.7492C55.5256 20.5942 53.9841 21.2442 52.0374 21.2442C48.2691 21.2442 46.0923 17.9716 46.0923 13.7664C46.0923 10.1898 47.6603 6.27637 51.9966 6.27637C55.7628 6.27637 57.1924 9.77852 57.1924 13.6797L56.8248 14.6113L49.7424 14.6777ZM49.6773 13.0082L54.0299 12.8133C53.9434 11.0786 53.585 8.31419 51.8816 8.31419C51.4774 8.31419 51.1862 8.3795 50.6669 8.66114C49.9664 9.85301 49.6681 12.0072 49.6773 13.0082Z" fill="#2D2C2B"/>
<path d="M109.88 14.6777C109.88 17.1696 110.956 19.0992 113.111 19.0992C114.215 19.0992 115.101 18.8604 116.139 18.3839L116.722 19.7492C115.664 20.5942 114.121 21.2442 112.174 21.2442C108.406 21.2442 106.229 17.9716 106.229 13.7664C106.229 10.1898 107.796 6.27637 112.134 6.27637C115.9 6.27637 117.329 9.77852 117.329 13.6797L116.962 14.6113L109.88 14.6777ZM109.815 13.0082L114.168 12.8133C114.081 11.0786 113.723 8.31419 112.02 8.31419C111.615 8.31419 111.324 8.3795 110.805 8.66114C110.104 9.85301 109.807 12.0072 109.815 13.0082Z" fill="#2D2C2B"/>
<path d="M84.6165 14.6777C84.6165 17.1696 85.6917 19.0992 87.8471 19.0992C88.9508 19.0992 89.8366 18.8604 90.8752 18.3839L91.4586 19.7492C90.3997 20.5942 88.8572 21.2442 86.9104 21.2442C83.1422 21.2442 80.9653 17.9716 80.9653 13.7664C80.9653 10.1898 82.5323 6.27637 86.8687 6.27637C90.6349 6.27637 92.0644 9.77852 92.0644 13.6797L91.6968 14.6113L84.6165 14.6777ZM84.5513 13.0082L88.904 12.8133C88.8174 11.0786 88.459 8.31419 86.7557 8.31419C86.3514 8.31419 86.0602 8.3795 85.541 8.66114C84.8405 9.85301 84.5432 12.0072 84.5513 13.0082Z" fill="#2D2C2B"/>
<path d="M127.113 21.0344L126.745 19.7987C125.793 20.7089 124.864 21.2508 123.415 21.2508C121.187 21.2508 119.193 20.1242 119.193 17.0455V8.41057L117.554 8.25852V6.89317L122.257 6.35132L122.625 7.58707V16.6129C122.625 18.1956 123.261 19.0191 124.539 19.0191C124.902 19.0191 125.362 18.9752 125.772 18.8027C126.009 18.564 126.226 18.2823 126.421 18.0007V8.41057L124.733 8.25852V6.89317L129.485 6.35132L129.853 7.58707V19.214L131.318 19.4956L131.145 21.0344H127.113Z" fill="#2D2C2B"/>
<path d="M64.238 19.1695C63.4815 19.1695 62.897 19.0389 62.4216 18.7797V9.61104C62.616 9.30797 62.8543 9.02633 63.0925 8.76612C63.5252 8.61407 63.9325 8.54978 64.3866 8.54978C66.3313 8.54978 66.6531 10.5243 66.6531 14.0581C66.6531 17.4613 66.148 18.3981 66.0126 18.7807C65.4923 19.0399 64.9303 19.1695 64.238 19.1695ZM70.0385 13.4173C70.0385 9.04062 68.7413 6.29053 65.5229 6.29053C63.3827 6.29053 62.3656 7.52832 61.9461 8.05079V7.57424L61.5785 6.33849L57.3511 6.92422V8.41815L58.9893 8.63448V26.3136L57.6046 26.5953L57.5394 28.0698H63.7839L63.8918 26.5953L62.4216 26.3136V20.7073C63.006 21.0328 63.8429 21.2492 64.7521 21.2492C69.9906 21.2512 70.0385 15.8806 70.0385 13.4173Z" fill="#2D2C2B"/>
<path d="M140.652 19.0056C141.363 19.0056 141.817 19.4281 141.817 20.022C141.817 20.621 141.351 21.0383 140.652 21.0383C139.963 21.0383 139.485 20.621 139.485 20.022C139.485 19.422 139.957 19.0056 140.652 19.0056ZM140.652 20.72C141.136 20.72 141.453 20.4332 141.453 20.021C141.453 19.6087 141.136 19.322 140.652 19.322C140.173 19.322 139.855 19.6036 139.855 20.021C139.855 20.4332 140.173 20.72 140.652 20.72ZM140.143 20.4802L140.15 20.3393L140.27 20.3128V19.6873L140.132 19.672L140.138 19.5311H140.694C140.934 19.5311 141.156 19.6087 141.149 19.8179C141.143 19.9638 141.06 20.0475 140.946 20.0944C141.006 20.1883 141.089 20.2873 141.149 20.324L141.233 20.3393L141.221 20.4802H140.94C140.844 20.4016 140.754 20.2975 140.671 20.1312H140.581V20.3138L140.7 20.3404L140.689 20.4812H140.143V20.4802ZM140.579 19.7036V19.975H140.681C140.819 19.975 140.849 19.923 140.849 19.8444C140.849 19.725 140.759 19.7036 140.645 19.7036H140.579V19.7036Z" fill="#2D2C2B"/>
<path d="M114.361 32.3053H113.624V25.0469H114.361V32.3053Z" fill="#2D2C2B"/>
<path d="M121.676 31.2297H121.697V25.0469H122.434V32.3053H121.513L117.298 26.0612H117.278V32.3053H116.541V25.0469H117.461L121.676 31.2297Z" fill="#2D2C2B"/>
<path d="M124.61 25.0466H127.014C127.463 25.0466 127.916 25.1221 128.369 25.2721C128.822 25.4222 129.232 25.6497 129.597 25.9538C129.96 26.2589 130.255 26.6375 130.482 27.0916C130.707 27.5467 130.819 28.0753 130.819 28.6763C130.819 29.2855 130.707 29.8141 130.482 30.2662C130.255 30.7162 129.96 31.0948 129.597 31.3979C129.232 31.703 128.822 31.9295 128.369 32.0805C127.916 32.2316 127.463 32.306 127.014 32.306H124.61V25.0466ZM125.347 31.6499H126.81C127.356 31.6499 127.831 31.5642 128.236 31.3928C128.642 31.2223 128.979 30.9978 129.244 30.7213C129.51 30.4448 129.71 30.1294 129.842 29.7733C129.975 29.4172 130.042 29.0519 130.042 28.6763C130.042 28.3008 129.975 27.9345 129.842 27.5794C129.71 27.2243 129.51 26.9079 129.244 26.6304C128.978 26.3538 128.642 26.1303 128.236 25.9599C127.831 25.7885 127.356 25.7028 126.81 25.7028H125.347V31.6499Z" fill="#2D2C2B"/>
<path d="M133.347 32.305H132.61V25.0466H133.347V32.305Z" fill="#2D2C2B"/>
<path d="M135.475 32.3053H134.667L137.796 25.0469H138.512L141.623 32.3053H140.804L140.006 30.3981H136.262L135.475 32.3053ZM136.539 29.7215H139.731L138.135 25.8673L136.539 29.7215Z" fill="#2D2C2B"/>
</g>
<defs>
<clipPath id="clip0_101_122">
<rect width="141.511" height="32" fill="white" transform="translate(0.306152 0.305664)"/>
</clipPath>
</defs>
</svg>
