<svg width="17" height="24" viewBox="0 0 17 24" fill="none" xmlns="http://www.w3.org/2000/svg">
<path fill-rule="evenodd" clip-rule="evenodd" d="M8.255 0.410034C6.62232 0.410034 5.0263 0.894182 3.66877 1.80125C2.31124 2.70832 1.25318 3.99758 0.628378 5.50598C0.0035767 7.01439 -0.1599 8.67419 0.158621 10.2755C0.477142 11.8768 1.26335 13.3477 2.41784 14.5022C3.57232 15.6567 5.04322 16.4429 6.64453 16.7614C8.24585 17.0799 9.90565 16.9165 11.4141 16.2917C12.9225 15.6669 14.2117 14.6088 15.1188 13.2513C16.0259 11.8937 16.51 10.2977 16.51 8.66504C16.51 7.58097 16.2965 6.50753 15.8816 5.50598C15.4668 4.50444 14.8587 3.59442 14.0922 2.82787C13.3256 2.06132 12.4156 1.45326 11.4141 1.03841C10.4125 0.623556 9.33907 0.410034 8.255 0.410034ZM8.255 14.4428C7.11227 14.4428 5.99519 14.104 5.04504 13.4691C4.09489 12.8342 3.35434 11.9318 2.91703 10.8761C2.47973 9.82034 2.36531 8.65862 2.58824 7.53785C2.81118 6.41707 3.36146 5.38757 4.1695 4.57953C4.97753 3.77149 6.00704 3.22121 7.12782 2.99828C8.24859 2.77534 9.41031 2.88976 10.4661 3.32706C11.5218 3.76437 12.4242 4.50492 13.0591 5.45507C13.6939 6.40522 14.0328 7.5223 14.0328 8.66504C14.0328 10.1974 13.4241 11.667 12.3405 12.7505C11.257 13.8341 9.78737 14.4428 8.255 14.4428Z" fill="#2D2C2B"/>
<path fill-rule="evenodd" clip-rule="evenodd" d="M12.3786 17.6639V23.5212L8.25475 21.8673L4.13086 23.5212V17.6639C5.42434 18.2586 6.83113 18.5665 8.25475 18.5665C9.67837 18.5665 11.0852 18.2586 12.3786 17.6639Z" fill="#2D2C2B"/>
<path d="M8.25475 12.7892C10.5323 12.7892 12.3786 10.9428 12.3786 8.66527C12.3786 6.38771 10.5323 4.54138 8.25475 4.54138C5.97719 4.54138 4.13086 6.38771 4.13086 8.66527C4.13086 10.9428 5.97719 12.7892 8.25475 12.7892Z" fill="#2D2C2B"/>
</svg>
