<svg width="17" height="25" viewBox="0 0 17 25" fill="none" xmlns="http://www.w3.org/2000/svg">
<path fill-rule="evenodd" clip-rule="evenodd" d="M8.255 1.41034C6.62232 1.41034 5.0263 1.89449 3.66877 2.80156C2.31124 3.70863 1.25318 4.99788 0.628378 6.50629C0.0035767 8.01469 -0.1599 9.6745 0.158621 11.2758C0.477142 12.8771 1.26335 14.348 2.41784 15.5025C3.57232 16.657 5.04322 17.4432 6.64453 17.7617C8.24585 18.0802 9.90565 17.9168 11.4141 17.292C12.9225 16.6672 14.2117 15.6091 15.1188 14.2516C16.0259 12.894 16.51 11.298 16.51 9.66534C16.51 8.58128 16.2965 7.50783 15.8816 6.50629C15.4668 5.50475 14.8587 4.59472 14.0922 3.82817C13.3256 3.06163 12.4156 2.45357 11.4141 2.03871C10.4125 1.62386 9.33907 1.41034 8.255 1.41034ZM8.255 15.4431C7.11227 15.4431 5.99519 15.1043 5.04504 14.4694C4.09489 13.8345 3.35434 12.9322 2.91703 11.8764C2.47973 10.8206 2.36531 9.65893 2.58824 8.53815C2.81118 7.41737 3.36146 6.38787 4.1695 5.57983C4.97753 4.7718 6.00704 4.22152 7.12782 3.99858C8.24859 3.77564 9.41031 3.89006 10.4661 4.32737C11.5218 4.76468 12.4242 5.50523 13.0591 6.45538C13.6939 7.40553 14.0328 8.5226 14.0328 9.66534C14.0328 11.1977 13.4241 12.6673 12.3405 13.7508C11.257 14.8344 9.78737 15.4431 8.255 15.4431Z" fill="#2D2C2B"/>
<path fill-rule="evenodd" clip-rule="evenodd" d="M12.3786 18.6642V24.5215L8.25475 22.8676L4.13086 24.5215V18.6642C5.42434 19.2589 6.83113 19.5668 8.25475 19.5668C9.67837 19.5668 11.0852 19.2589 12.3786 18.6642Z" fill="#2D2C2B"/>
<path d="M8.25475 13.7895C10.5323 13.7895 12.3786 11.9431 12.3786 9.66558C12.3786 7.38802 10.5323 5.54169 8.25475 5.54169C5.97719 5.54169 4.13086 7.38802 4.13086 9.66558C4.13086 11.9431 5.97719 13.7895 8.25475 13.7895Z" fill="#2D2C2B"/>
</svg>
