<svg width="182" height="512" viewBox="0 0 182 512" fill="none" xmlns="http://www.w3.org/2000/svg">
<g clip-path="url(#clip0_102_1602)">
<path d="M175.6 554.516C175.876 554.501 176.112 554.712 176.127 554.988C176.142 555.264 175.93 555.499 175.655 555.514L175.6 554.516ZM132.411 489.115L132.878 489.294L132.878 489.294L132.411 489.115ZM156.067 494.554L156.505 494.796L156.505 494.796L156.067 494.554ZM92.6725 508.029L92.9132 507.591L92.9132 507.591L92.6725 508.029ZM27.477 412.896L30.6688 417.707L24.9065 418.066L27.477 412.896ZM129.773 513.79C129.809 514.064 129.616 514.315 129.342 514.351C129.069 514.387 128.817 514.195 128.781 513.921L129.773 513.79ZM129.259 516.814C129.205 516.543 129.382 516.28 129.652 516.227C129.923 516.173 130.186 516.349 130.24 516.62L129.259 516.814ZM130.884 519.419C130.954 519.686 130.794 519.959 130.527 520.029C130.26 520.099 129.987 519.939 129.917 519.672L130.884 519.419ZM130.74 522.483C130.655 522.22 130.799 521.938 131.062 521.853C131.324 521.768 131.606 521.912 131.691 522.174L130.74 522.483ZM132.654 524.882C132.754 525.14 132.626 525.429 132.368 525.529C132.111 525.629 131.821 525.501 131.721 525.243L132.654 524.882ZM132.853 527.945C132.739 527.693 132.851 527.397 133.103 527.283C133.355 527.169 133.651 527.281 133.764 527.533L132.853 527.945ZM135.018 530.118C135.145 530.363 135.049 530.665 134.804 530.792C134.559 530.92 134.257 530.824 134.13 530.579L135.018 530.118ZM135.55 533.142C135.41 532.904 135.489 532.597 135.726 532.457C135.964 532.316 136.271 532.395 136.411 532.633L135.55 533.142ZM137.94 535.064C138.094 535.294 138.032 535.604 137.802 535.758C137.573 535.911 137.262 535.85 137.109 535.62L137.94 535.064ZM138.806 538.008C138.64 537.788 138.683 537.474 138.904 537.308C139.124 537.141 139.438 537.185 139.604 537.406L138.806 538.008ZM141.401 539.646C141.58 539.856 141.555 540.172 141.345 540.351C141.134 540.53 140.819 540.505 140.64 540.295L141.401 539.646ZM142.607 542.467C142.415 542.268 142.421 541.952 142.62 541.76C142.819 541.569 143.135 541.575 143.327 541.773L142.607 542.467ZM145.381 543.777C145.584 543.964 145.598 544.28 145.412 544.484C145.225 544.687 144.909 544.701 144.706 544.515L145.381 543.777ZM146.933 546.425C146.717 546.252 146.683 545.937 146.856 545.722C147.028 545.506 147.343 545.472 147.559 545.645L146.933 546.425ZM149.853 547.362C150.08 547.519 150.135 547.831 149.977 548.058C149.82 548.284 149.508 548.34 149.281 548.182L149.853 547.362ZM151.747 549.776C151.51 549.634 151.432 549.327 151.574 549.09C151.716 548.853 152.023 548.776 152.26 548.917L151.747 549.776ZM154.771 550.3C155.017 550.425 155.116 550.725 154.992 550.972C154.867 551.218 154.566 551.317 154.32 551.193L154.771 550.3ZM156.985 552.42C156.73 552.314 156.61 552.021 156.716 551.766C156.823 551.512 157.116 551.391 157.37 551.498L156.985 552.42ZM160.051 552.504C160.313 552.591 160.454 552.874 160.366 553.136C160.279 553.398 159.996 553.54 159.734 553.452L160.051 552.504ZM162.552 554.282C162.284 554.213 162.123 553.941 162.191 553.674C162.259 553.406 162.532 553.245 162.799 553.313L162.552 554.282ZM165.602 553.923C165.874 553.972 166.054 554.232 166.005 554.503C165.956 554.775 165.696 554.956 165.424 554.907L165.602 553.923ZM168.326 555.326C168.051 555.296 167.853 555.049 167.883 554.774C167.913 554.5 168.16 554.302 168.435 554.332L168.326 555.326ZM171.291 554.546C171.566 554.558 171.781 554.79 171.769 555.066C171.758 555.342 171.525 555.557 171.249 555.545L171.291 554.546ZM174.18 555.572C173.904 555.578 173.675 555.359 173.669 555.083C173.662 554.807 173.881 554.578 174.157 554.572L174.18 555.572ZM128.494 510.971C128.476 510.696 128.685 510.458 128.961 510.44C129.236 510.422 129.474 510.631 129.492 510.906L128.494 510.971ZM129.391 507.971C129.392 508.247 129.169 508.472 128.893 508.473C128.617 508.474 128.392 508.251 128.391 507.975L129.391 507.971ZM128.47 504.978C128.486 504.703 128.722 504.492 128.998 504.507C129.273 504.523 129.484 504.759 129.469 505.035L128.47 504.978ZM129.721 502.107C129.689 502.382 129.441 502.578 129.166 502.547C128.892 502.515 128.695 502.267 128.727 501.992L129.721 502.107ZM129.157 499.027C129.204 498.755 129.463 498.573 129.735 498.62C130.007 498.668 130.189 498.927 130.142 499.199L129.157 499.027ZM130.728 496.318C130.665 496.587 130.396 496.755 130.128 496.692C129.859 496.629 129.691 496.361 129.754 496.092L130.728 496.318ZM130.513 493.194C130.59 492.929 130.868 492.777 131.133 492.854C131.398 492.932 131.55 493.209 131.473 493.474L130.513 493.194ZM132.372 490.675C132.281 490.935 131.995 491.072 131.735 490.981C131.474 490.889 131.337 490.604 131.429 490.343L132.372 490.675ZM132.545 487.446C132.653 487.192 132.947 487.074 133.201 487.182C133.455 487.291 133.573 487.584 133.465 487.838L132.545 487.446ZM134.791 485.06C134.661 485.304 134.358 485.396 134.115 485.266C133.871 485.136 133.779 484.833 133.909 484.589L134.791 485.06ZM135.557 481.847C135.712 481.619 136.023 481.559 136.252 481.714C136.48 481.869 136.54 482.18 136.385 482.408L135.557 481.847ZM138.253 479.985C138.071 480.192 137.755 480.212 137.548 480.03C137.341 479.847 137.321 479.531 137.503 479.324L138.253 479.985ZM139.809 477.076C140.021 476.9 140.337 476.929 140.513 477.142C140.689 477.355 140.659 477.67 140.447 477.846L139.809 477.076ZM142.954 476.132C142.711 476.265 142.407 476.176 142.275 475.934C142.142 475.691 142.231 475.388 142.473 475.255L142.954 476.132ZM145.474 474.028C145.741 473.954 146.016 474.11 146.089 474.377C146.163 474.643 146.007 474.918 145.74 474.992L145.474 474.028ZM148.705 474.585C148.428 474.584 148.205 474.36 148.206 474.083C148.207 473.807 148.432 473.584 148.708 473.585L148.705 474.585ZM151.947 474.088C152.21 474.172 152.355 474.453 152.271 474.716C152.187 474.979 151.906 475.124 151.643 475.04L151.947 474.088ZM154.285 476.381C154.062 476.218 154.013 475.905 154.176 475.682C154.339 475.459 154.652 475.411 154.875 475.574L154.285 476.381ZM157.181 477.914C157.341 478.139 157.289 478.452 157.064 478.612C156.839 478.772 156.527 478.72 156.366 478.495L157.181 477.914ZM157.711 481.149C157.623 480.887 157.763 480.603 158.025 480.515C158.287 480.427 158.57 480.568 158.659 480.83L157.711 481.149ZM159.285 484.025C159.305 484.3 159.097 484.539 158.821 484.559C158.546 484.578 158.307 484.37 158.288 484.095L159.285 484.025ZM158.17 487.119C158.209 486.846 158.461 486.655 158.735 486.694C159.008 486.732 159.199 486.985 159.16 487.259L158.17 487.119ZM158.434 490.389C158.35 490.652 158.068 490.797 157.805 490.713C157.542 490.629 157.397 490.347 157.481 490.084L158.434 490.389ZM156.342 492.933C156.461 492.684 156.759 492.579 157.008 492.698C157.257 492.818 157.363 493.116 157.243 493.365L156.342 492.933ZM155.791 496.016C155.646 496.251 155.338 496.324 155.103 496.178C154.868 496.033 154.795 495.725 154.94 495.49L155.791 496.016ZM153.397 497.742C153.564 497.522 153.878 497.478 154.098 497.645C154.318 497.811 154.362 498.125 154.195 498.345L153.397 497.742ZM152.393 500.517C152.207 500.721 151.891 500.736 151.686 500.551C151.482 500.365 151.467 500.049 151.652 499.844L152.393 500.517ZM149.728 501.787C149.931 501.599 150.247 501.611 150.435 501.813C150.623 502.016 150.611 502.332 150.408 502.52L149.728 501.787ZM148.268 504.351C148.051 504.522 147.736 504.485 147.565 504.268C147.394 504.051 147.431 503.737 147.648 503.566L148.268 504.351ZM145.434 505.181C145.663 505.027 145.974 505.087 146.128 505.316C146.283 505.545 146.222 505.856 145.993 506.01L145.434 505.181ZM143.609 507.5C143.369 507.638 143.064 507.556 142.925 507.317C142.787 507.078 142.869 506.772 143.108 506.634L143.609 507.5ZM140.688 507.928C140.935 507.806 141.235 507.907 141.358 508.155C141.48 508.403 141.378 508.702 141.131 508.825L140.688 507.928ZM138.576 509.992C138.322 510.099 138.029 509.979 137.922 509.725C137.814 509.47 137.934 509.177 138.188 509.07L138.576 509.992ZM135.625 510.063C135.886 509.97 136.172 510.106 136.264 510.367C136.356 510.627 136.22 510.913 135.96 511.005L135.625 510.063ZM133.293 511.872C133.028 511.95 132.75 511.799 132.671 511.534C132.593 511.269 132.744 510.991 133.009 510.913L133.293 511.872ZM130.351 511.624C130.619 511.559 130.889 511.725 130.954 511.993C131.018 512.262 130.853 512.532 130.584 512.596L130.351 511.624ZM28.0696 414.368C28.0889 414.643 27.8812 414.882 27.6058 414.901C27.3303 414.921 27.0913 414.713 27.072 414.438L28.0696 414.368ZM27.3301 417.442C27.3022 417.167 27.5022 416.922 27.7769 416.894C28.0517 416.866 28.297 417.066 28.325 417.341L27.3301 417.442ZM28.6745 420.313C28.711 420.587 28.5188 420.839 28.2451 420.875C27.9714 420.912 27.7198 420.719 27.6833 420.446L28.6745 420.313ZM28.1301 423.434C28.085 423.162 28.2693 422.904 28.5417 422.859C28.8142 422.814 29.0716 422.998 29.1167 423.271L28.1301 423.434ZM29.6503 426.21C29.7039 426.481 29.5277 426.744 29.2568 426.797C28.9859 426.851 28.7228 426.675 28.6693 426.404L29.6503 426.21ZM29.3005 429.356C29.2386 429.087 29.4066 428.819 29.6757 428.757C29.9449 428.695 30.2132 428.863 30.2751 429.132L29.3005 429.356ZM30.9905 432.038C31.0606 432.305 30.901 432.578 30.6339 432.648C30.3668 432.718 30.0934 432.559 30.0233 432.292L30.9905 432.038ZM30.8344 435.201C30.7562 434.936 30.9076 434.658 31.1724 434.579C31.4372 434.501 31.7153 434.653 31.7935 434.917L30.8344 435.201ZM32.6824 437.77C32.7684 438.032 32.6255 438.315 32.3631 438.401C32.1007 438.487 31.8183 438.344 31.7322 438.082L32.6824 437.77ZM32.716 440.937C32.6222 440.678 32.7567 440.391 33.0165 440.297C33.2762 440.204 33.5628 440.338 33.6566 440.598L32.716 440.937ZM34.7136 443.397C34.8149 443.654 34.6888 443.944 34.4319 444.045C34.175 444.147 33.8846 444.02 33.7833 443.764L34.7136 443.397ZM34.9309 446.556C34.8223 446.302 34.9401 446.008 35.194 445.9C35.4479 445.791 35.7418 445.909 35.8504 446.163L34.9309 446.556ZM37.0646 448.894C37.1802 449.145 37.0707 449.442 36.82 449.558C36.5693 449.674 36.2722 449.564 36.1565 449.313L37.0646 448.894ZM37.4592 452.037C37.3366 451.79 37.4379 451.49 37.6854 451.367C37.9328 451.245 38.2328 451.346 38.3553 451.594L37.4592 452.037ZM39.7197 454.257C39.8489 454.501 39.7557 454.804 39.5117 454.933C39.2676 455.062 38.965 454.969 38.8358 454.725L39.7197 454.257ZM40.2832 457.374C40.1476 457.133 40.2327 456.828 40.4732 456.693C40.7138 456.557 41.0187 456.642 41.1543 456.883L40.2832 457.374ZM42.6569 459.469C42.7986 459.706 42.7215 460.013 42.4846 460.154C42.2476 460.296 41.9406 460.219 41.7988 459.982L42.6569 459.469ZM43.3812 462.552C43.2334 462.318 43.3027 462.009 43.536 461.862C43.7693 461.714 44.0782 461.783 44.2259 462.016L43.3812 462.552ZM45.8597 464.526C46.0132 464.755 45.9516 465.066 45.7221 465.219C45.4926 465.373 45.1821 465.311 45.0285 465.082L45.8597 464.526ZM46.737 467.569C46.5779 467.344 46.6319 467.032 46.8576 466.872C47.0833 466.713 47.3953 466.767 47.5544 466.993L46.737 467.569ZM49.3075 469.418C49.472 469.64 49.4254 469.953 49.2036 470.118C48.9818 470.282 48.6686 470.235 48.5042 470.014L49.3075 469.418ZM50.3277 472.414C50.1581 472.196 50.1973 471.882 50.4152 471.713C50.6332 471.543 50.9473 471.582 51.1169 471.8L50.3277 472.414ZM52.984 474.143C53.1585 474.357 53.1266 474.672 52.9126 474.847C52.6987 475.021 52.3837 474.989 52.2091 474.775L52.984 474.143ZM54.1432 477.092C53.9639 476.882 53.9887 476.566 54.1986 476.387C54.4086 476.207 54.7242 476.232 54.9036 476.442L54.1432 477.092ZM56.8736 478.697C57.0576 478.903 57.0398 479.219 56.8339 479.403C56.6279 479.587 56.3118 479.569 56.1279 479.363L56.8736 478.697ZM58.161 481.589C57.9726 481.387 57.9835 481.071 58.1853 480.883C58.3872 480.694 58.7036 480.705 58.892 480.907L58.161 481.589ZM60.9573 483.072C61.15 483.269 61.146 483.586 60.9482 483.779C60.7505 483.971 60.434 483.967 60.2412 483.77L60.9573 483.072ZM62.3714 485.909C62.1745 485.715 62.1717 485.398 62.3653 485.202C62.5589 485.005 62.8754 485.002 63.0724 485.195L62.3714 485.909ZM65.2315 487.273C65.4325 487.463 65.4419 487.779 65.2526 487.98C65.0632 488.181 64.7468 488.19 64.5458 488.001L65.2315 487.273ZM66.7628 490.046C66.5579 489.861 66.5418 489.545 66.7269 489.34C66.912 489.135 67.2282 489.119 67.4331 489.304L66.7628 490.046ZM69.6759 491.288C69.8846 491.469 69.9073 491.784 69.7265 491.993C69.5457 492.202 69.2299 492.224 69.0212 492.044L69.6759 491.288ZM71.3197 493.993C71.1072 493.816 71.078 493.501 71.2544 493.289C71.4308 493.076 71.746 493.047 71.9584 493.223L71.3197 493.993ZM74.2798 495.11C74.4959 495.282 74.5318 495.596 74.3598 495.813C74.1879 496.029 73.8734 496.064 73.6573 495.893L74.2798 495.11ZM76.0393 497.747C75.8196 497.58 75.7772 497.266 75.9445 497.046C76.1118 496.826 76.4256 496.784 76.6452 496.951L76.0393 497.747ZM79.0486 498.742C79.2718 498.905 79.3209 499.217 79.1583 499.441C78.9957 499.664 78.6829 499.713 78.4597 499.55L79.0486 498.742ZM80.9178 501.301C80.6911 501.143 80.6353 500.832 80.793 500.605C80.9508 500.378 81.2624 500.322 81.489 500.48L80.9178 501.301ZM83.9662 502.164C84.1962 502.317 84.259 502.627 84.1062 502.857C83.9535 503.087 83.6432 503.15 83.4132 502.997L83.9662 502.164ZM85.9458 504.637C85.7123 504.49 85.6426 504.181 85.79 503.948C85.9375 503.714 86.2463 503.645 86.4797 503.792L85.9458 504.637ZM89.0297 505.361C89.2666 505.503 89.3436 505.81 89.2017 506.047C89.0598 506.284 88.7528 506.361 88.5159 506.219L89.0297 505.361ZM91.1237 507.738C90.8834 507.602 90.7988 507.297 90.9348 507.056C91.0709 506.816 91.3759 506.732 91.6163 506.868L91.1237 507.738ZM94.2768 508.304C94.5241 508.427 94.6248 508.727 94.5018 508.974C94.3787 509.222 94.0786 509.322 93.8314 509.199L94.2768 508.304ZM96.7104 510.496C96.4545 510.392 96.3314 510.101 96.4354 509.845C96.5394 509.589 96.831 509.466 97.0868 509.57L96.7104 510.496ZM99.9845 510.63C100.247 510.716 100.39 510.999 100.304 511.261C100.218 511.523 99.9355 511.666 99.6731 511.581L99.9845 510.63ZM102.698 512.464C102.431 512.395 102.27 512.122 102.339 511.855C102.408 511.588 102.681 511.427 102.948 511.496L102.698 512.464ZM105.962 512.177C106.233 512.23 106.41 512.492 106.357 512.763C106.304 513.034 106.041 513.211 105.77 513.158L105.962 512.177ZM108.877 513.672C108.603 513.634 108.412 513.382 108.449 513.109C108.487 512.835 108.739 512.644 109.012 512.681L108.877 513.672ZM112.087 513.014C112.362 513.037 112.567 513.278 112.545 513.553C112.522 513.828 112.281 514.033 112.006 514.011L112.087 513.014ZM115.148 514.182C114.872 514.174 114.654 513.944 114.662 513.668C114.669 513.392 114.899 513.174 115.175 513.182L115.148 514.182ZM118.269 513.187C118.545 513.18 118.775 513.399 118.782 513.675C118.788 513.951 118.57 514.18 118.294 514.187L118.269 513.187ZM121.436 514.028C121.161 514.049 120.92 513.843 120.899 513.567C120.878 513.292 121.084 513.052 121.359 513.031L121.436 514.028ZM124.437 512.713C124.71 512.677 124.961 512.87 124.997 513.144C125.033 513.418 124.839 513.669 124.566 513.704L124.437 512.713ZM127.674 513.215C127.403 513.265 127.142 513.086 127.092 512.814C127.041 512.543 127.221 512.282 127.492 512.231L127.674 513.215ZM129.611 512.37C129.656 512.84 129.71 513.314 129.773 513.79L128.781 513.921C128.717 513.433 128.662 512.948 128.615 512.466L129.611 512.37ZM130.24 516.62C130.424 517.547 130.638 518.481 130.884 519.419L129.917 519.672C129.666 518.715 129.447 517.761 129.259 516.814L130.24 516.62ZM131.691 522.174C131.984 523.077 132.305 523.981 132.654 524.882L131.721 525.243C131.366 524.324 131.039 523.403 130.74 522.483L131.691 522.174ZM133.764 527.533C134.156 528.401 134.574 529.263 135.018 530.118L134.13 530.579C133.678 529.707 133.252 528.828 132.853 527.945L133.764 527.533ZM136.411 532.633C136.896 533.454 137.406 534.265 137.94 535.064L137.109 535.62C136.564 534.805 136.044 533.978 135.55 533.142L136.411 532.633ZM139.604 537.406C140.179 538.168 140.778 538.915 141.401 539.646L140.64 540.295C140.004 539.549 139.393 538.786 138.806 538.008L139.604 537.406ZM143.327 541.773C143.989 542.461 144.673 543.13 145.381 543.777L144.706 544.515C143.982 543.853 143.283 543.169 142.607 542.467L143.327 541.773ZM147.559 545.645C148.301 546.24 149.066 546.813 149.853 547.362L149.281 548.182C148.476 547.621 147.693 547.034 146.933 546.425L147.559 545.645ZM152.26 548.917C153.076 549.405 153.913 549.867 154.771 550.3L154.32 551.193C153.441 550.749 152.583 550.276 151.747 549.776L152.26 548.917ZM157.37 551.498C158.244 551.862 159.138 552.198 160.051 552.504L159.734 553.452C158.797 553.139 157.881 552.794 156.985 552.42L157.37 551.498ZM162.799 553.313C163.715 553.547 164.65 553.751 165.602 553.923L165.424 554.907C164.449 554.731 163.491 554.522 162.552 554.282L162.799 553.313ZM168.435 554.332C169.37 554.434 170.322 554.506 171.291 554.546L171.249 555.545C170.259 555.504 169.284 555.431 168.326 555.326L168.435 554.332ZM174.157 554.572C174.635 554.561 175.116 554.542 175.6 554.516L175.655 555.514C175.16 555.541 174.668 555.56 174.18 555.572L174.157 554.572ZM128.615 512.466C128.567 511.968 128.527 511.47 128.494 510.971L129.492 510.906C129.524 511.394 129.564 511.882 129.611 512.37L128.615 512.466ZM128.391 507.975C128.388 506.976 128.414 505.977 128.47 504.978L129.469 505.035C129.414 506.013 129.388 506.992 129.391 507.971L128.391 507.975ZM128.727 501.992C128.842 501.002 128.985 500.013 129.157 499.027L130.142 499.199C129.973 500.166 129.833 501.136 129.721 502.107L128.727 501.992ZM129.754 496.092C129.98 495.121 130.233 494.155 130.513 493.194L131.473 493.474C131.198 494.417 130.95 495.366 130.728 496.318L129.754 496.092ZM131.429 490.343C131.594 489.873 131.765 489.404 131.943 488.937L132.878 489.294C132.703 489.752 132.534 490.213 132.372 490.675L131.429 490.343ZM131.943 488.937C132.138 488.426 132.339 487.929 132.545 487.446L133.465 487.838C133.264 488.309 133.068 488.794 132.878 489.294L131.943 488.937ZM133.909 484.589C134.435 483.604 134.986 482.691 135.557 481.847L136.385 482.408C135.834 483.221 135.301 484.104 134.791 485.06L133.909 484.589ZM137.503 479.324C138.251 478.476 139.022 477.728 139.809 477.076L140.447 477.846C139.702 478.463 138.968 479.174 138.253 479.985L137.503 479.324ZM142.473 475.255C143.471 474.709 144.476 474.303 145.474 474.028L145.74 474.992C144.82 475.245 143.886 475.622 142.954 476.132L142.473 475.255ZM148.708 473.585C149.834 473.589 150.923 473.761 151.947 474.088L151.643 475.04C150.718 474.745 149.731 474.588 148.705 474.585L148.708 473.585ZM154.875 475.574C155.753 476.216 156.531 477.002 157.181 477.914L156.366 478.495C155.778 477.669 155.075 476.96 154.285 476.381L154.875 475.574ZM158.659 480.83C158.991 481.818 159.206 482.887 159.285 484.025L158.288 484.095C158.214 483.038 158.015 482.053 157.711 481.149L158.659 480.83ZM159.16 487.259C159.018 488.267 158.779 489.312 158.434 490.389L157.481 490.084C157.81 489.058 158.036 488.068 158.17 487.119L159.16 487.259ZM157.243 493.365C157.017 493.838 156.771 494.315 156.505 494.796L155.63 494.312C155.887 493.847 156.124 493.388 156.342 492.933L157.243 493.365ZM156.505 494.796C156.276 495.209 156.038 495.616 155.791 496.016L154.94 495.49C155.179 495.104 155.409 494.711 155.63 494.312L156.505 494.796ZM154.195 498.345C153.627 499.096 153.026 499.82 152.393 500.517L151.652 499.844C152.266 499.169 152.848 498.468 153.397 497.742L154.195 498.345ZM150.408 502.52C149.722 503.157 149.008 503.767 148.268 504.351L147.648 503.566C148.368 502.998 149.062 502.405 149.728 501.787L150.408 502.52ZM145.993 506.01C145.22 506.532 144.424 507.028 143.609 507.5L143.108 506.634C143.905 506.174 144.681 505.689 145.434 505.181L145.993 506.01ZM141.131 508.825C140.296 509.238 139.443 509.627 138.576 509.992L138.188 509.07C139.037 508.713 139.871 508.332 140.688 507.928L141.131 508.825ZM135.96 511.005C135.083 511.317 134.193 511.606 133.293 511.872L133.009 510.913C133.892 510.652 134.765 510.368 135.625 510.063L135.96 511.005ZM130.584 512.596C130.131 512.705 129.675 512.809 129.218 512.907L129.008 511.929C129.458 511.833 129.905 511.731 130.351 511.624L130.584 512.596ZM28.325 417.341C28.4263 418.338 28.543 419.329 28.6745 420.313L27.6833 420.446C27.5504 419.451 27.4325 418.449 27.3301 417.442L28.325 417.341ZM29.1167 423.271C29.2799 424.257 29.4579 425.237 29.6503 426.21L28.6693 426.404C28.4749 425.42 28.295 424.431 28.1301 423.434L29.1167 423.271ZM30.2751 429.132C30.4994 430.107 30.738 431.076 30.9905 432.038L30.0233 432.292C29.7682 431.32 29.5271 430.342 29.3005 429.356L30.2751 429.132ZM31.7935 434.917C32.0763 435.875 32.3727 436.826 32.6824 437.77L31.7322 438.082C31.4195 437.129 31.1201 436.168 30.8344 435.201L31.7935 434.917ZM33.6566 440.598C33.9961 441.538 34.3486 442.471 34.7136 443.397L33.7833 443.764C33.4148 442.829 33.0589 441.887 32.716 440.937L33.6566 440.598ZM35.8504 446.163C36.2431 447.081 36.648 447.992 37.0646 448.894L36.1565 449.313C35.7361 448.402 35.3274 447.483 34.9309 446.556L35.8504 446.163ZM38.3553 451.594C38.7989 452.489 39.2539 453.377 39.7197 454.257L38.8358 454.725C38.3659 453.837 37.9068 452.941 37.4592 452.037L38.3553 451.594ZM41.1543 456.883C41.6449 457.753 42.1459 458.615 42.6569 459.469L41.7988 459.982C41.2835 459.121 40.7781 458.252 40.2832 457.374L41.1543 456.883ZM44.2259 462.016C44.7612 462.861 45.306 463.698 45.8597 464.526L45.0285 465.082C44.4702 464.247 43.9209 463.404 43.3812 462.552L44.2259 462.016ZM47.5544 466.993C48.1304 467.81 48.715 468.619 49.3075 469.418L48.5042 470.014C47.907 469.208 47.3177 468.393 46.737 467.569L47.5544 466.993ZM51.1169 471.8C51.7319 472.59 52.3545 473.371 52.984 474.143L52.2091 474.775C51.5748 473.998 50.9475 473.211 50.3277 472.414L51.1169 471.8ZM54.9036 476.442C55.554 477.204 56.2108 477.955 56.8736 478.697L56.1279 479.363C55.4602 478.616 54.7985 477.859 54.1432 477.092L54.9036 476.442ZM58.892 480.907C59.5753 481.639 60.2639 482.36 60.9573 483.072L60.2412 483.77C59.5429 483.053 58.8493 482.326 58.161 481.589L58.892 480.907ZM63.0724 485.195C63.7881 485.899 64.508 486.592 65.2315 487.273L64.5458 488.001C63.8172 487.315 63.0922 486.617 62.3714 485.909L63.0724 485.195ZM67.4331 489.304C68.178 489.977 68.9258 490.638 69.6759 491.288L69.0212 492.044C68.2659 491.39 67.5129 490.724 66.7628 490.046L67.4331 489.304ZM71.9584 493.223C72.7309 493.865 73.505 494.494 74.2798 495.11L73.6573 495.893C72.877 495.272 72.0976 494.639 71.3197 493.993L71.9584 493.223ZM76.6452 496.951C77.4467 497.562 78.2481 498.159 79.0486 498.742L78.4597 499.55C77.6535 498.963 76.8464 498.362 76.0393 497.747L76.6452 496.951ZM81.489 500.48C82.317 501.056 83.143 501.618 83.9662 502.164L83.4132 502.997C82.5839 502.447 81.7518 501.881 80.9178 501.301L81.489 500.48ZM86.4797 503.792C87.3344 504.332 88.1848 504.855 89.0297 505.361L88.5159 506.219C87.6641 505.708 86.807 505.181 85.9458 504.637L86.4797 503.792ZM91.6163 506.868C92.0504 507.113 92.4828 507.354 92.9132 507.591L92.4318 508.467C91.9976 508.229 91.5615 507.986 91.1237 507.738L91.6163 506.868ZM92.9132 507.591C93.3604 507.836 93.8151 508.074 94.2768 508.304L93.8314 509.199C93.3578 508.964 92.8911 508.72 92.4318 508.467L92.9132 507.591ZM97.0868 509.57C98.031 509.953 98.9979 510.307 99.9845 510.63L99.6731 511.581C98.6653 511.25 97.6766 510.889 96.7104 510.496L97.0868 509.57ZM102.948 511.496C103.938 511.751 104.944 511.978 105.962 512.177L105.77 513.158C104.733 512.956 103.708 512.725 102.698 512.464L102.948 511.496ZM109.012 512.681C110.029 512.82 111.055 512.931 112.087 513.014L112.006 514.011C110.956 513.926 109.912 513.813 108.877 513.672L109.012 512.681ZM115.175 513.182C116.204 513.211 117.237 513.212 118.269 513.187L118.294 514.187C117.244 514.213 116.194 514.211 115.148 514.182L115.175 513.182ZM121.359 513.031C122.388 512.952 123.415 512.846 124.437 512.713L124.566 513.704C123.526 513.839 122.482 513.947 121.436 514.028L121.359 513.031ZM127.492 512.231C128 512.137 128.505 512.036 129.008 511.929L129.218 512.907C128.705 513.016 128.191 513.119 127.674 513.215L127.492 512.231Z" fill="#2D2C2B"/>
</g>
<defs>
<clipPath id="clip0_102_1602">
<rect width="181.296" height="511.594" fill="white" transform="translate(0.557617)"/>
</clipPath>
</defs>
</svg>
