<svg width="107" height="20" viewBox="0 0 107 20" fill="none" xmlns="http://www.w3.org/2000/svg">
<g clip-path="url(#clip0_101_98)">
<path d="M20.7872 19.3057H0.891968V0.332691H20.7872V19.3057Z" fill="#00B67A"/>
<path d="M42.3409 19.3057H22.4457V0.332691H42.3409V19.3057Z" fill="#00B67A"/>
<path d="M63.8937 19.3057H43.9984V0.332691H63.8937V19.3057Z" fill="#00B67A"/>
<path d="M85.4474 19.3057H65.5521V0.332691H85.4474V19.3057Z" fill="#00B67A"/>
<path d="M107 19.3057H87.1049V0.332691H107V19.3057Z" fill="#00B67A"/>
<path d="M10.8405 6.5187L13.8662 7.24995L15.1304 3.53441L10.8405 6.5187ZM17.8038 11.3212H12.4777L10.8405 16.104L9.20327 11.3212H3.87714L8.18778 8.35671L6.55056 3.57394L10.8612 6.53846L13.5139 8.35671L17.8038 11.3212Z" fill="white"/>
<path d="M32.3934 6.5187L35.4191 7.24995L36.6833 3.53441L32.3934 6.5187ZM39.3567 11.3212H34.0306L32.3934 16.104L30.7562 11.3212H25.4301L29.7407 8.35671L28.1035 3.57394L32.4141 6.53846L35.0668 8.35671L39.3567 11.3212Z" fill="white"/>
<path d="M53.9469 6.5187L56.9726 7.24995L58.2368 3.53441L53.9469 6.5187ZM60.9102 11.3212H55.5841L53.9469 16.104L52.3097 11.3212H46.9835L51.2942 8.35671L49.6569 3.57394L53.9676 6.53846L56.6203 8.35671L60.9102 11.3212Z" fill="white"/>
<path d="M75.4998 6.5187L78.5256 7.24995L79.7898 3.53441L75.4998 6.5187ZM82.4632 11.3212H77.1371L75.4998 16.104L73.8626 11.3212H68.5365L72.8471 8.35671L71.2099 3.57394L75.5206 6.53846L78.1733 8.35671L82.4632 11.3212Z" fill="white"/>
<path d="M97.0536 6.5187L100.079 7.24995L101.343 3.53441L97.0536 6.5187ZM104.017 11.3212H98.6908L97.0536 16.104L95.4163 11.3212H90.0902L94.4009 8.35671L92.7636 3.57394L97.0743 6.53846L99.727 8.35671L104.017 11.3212Z" fill="white"/>
</g>
<defs>
<clipPath id="clip0_101_98">
<rect width="106.108" height="18.973" fill="white" transform="matrix(1 0 0 -1 0.891968 19.3057)"/>
</clipPath>
</defs>
</svg>
