<svg width="26" height="24" viewBox="0 0 26 24" fill="none" xmlns="http://www.w3.org/2000/svg">
<path d="M25.8267 9.5305C25.663 9.05028 25.214 8.70921 24.6828 8.6638L17.4672 8.04226L14.6139 1.70698C14.4035 1.24268 13.9244 0.942139 13.392 0.942139C12.8597 0.942139 12.3805 1.24268 12.1701 1.70806L9.31686 8.04226L2.10005 8.6638C1.56979 8.7103 1.12194 9.05028 0.957327 9.5305C0.792719 10.0107 0.944738 10.5374 1.34586 10.8695L6.80006 15.4071L5.19174 22.1278C5.07405 22.6219 5.27624 23.1327 5.70845 23.4291C5.94077 23.5884 6.21258 23.6694 6.48667 23.6694C6.723 23.6694 6.95742 23.609 7.1678 23.4896L13.392 19.9607L19.6139 23.4896C20.0692 23.7494 20.6432 23.7257 21.0744 23.4291C21.5068 23.1318 21.7088 22.6209 21.5911 22.1278L19.9828 15.4071L25.437 10.8704C25.8381 10.5374 25.9913 10.0116 25.8267 9.5305Z" fill="white"/>
</svg>
